# xmcd CD database file
#
# Track frame offsets:
#	150
#	25023
#	58047
#	87376
#	120148
#	144626
#	174260
#	203969
#	230277
#	257992
#	278534
#	312713
#
# Disc length: 4430 seconds
#
# Revision: 0
# Processed by: cddbd v1.5.2PL0 Copyright (c) Steve Scherf et al.
# Submitted via: CDex 1.77
#
DISCID=a1114c0c
DTITLE=Jim Ketch - Next Set
DYEAR=2009
DGENRE=Jazz
TTITLE0=Short Story
TTITLE1=Dancin' on the Rooster
TTITLE2=Moments of the Sublime
TTITLE3=Danny Boy
TTITLE4=April Mist
TTITLE5=Changes You Can Believe
TTITLE6=The Water's Edge
TTITLE7=Lonnie's Lament
TTITLE8=Peace - Blue Silver
TTITLE9=Without A Song
TTITLE10=Over the Rainbow
TTITLE11=Shiny Stocking
EXTD=YEAR: 2009
EXTT0=
EXTT1=
EXTT2=
EXTT3=
EXTT4=
EXTT5=
EXTT6=
EXTT7=
EXTT8=
EXTT9=
EXTT10=
EXTT11=
PLAYORDER=
